<?xml version="1.0" encoding="UTF-8"?>
<svg width="519px" height="478px" viewBox="0 0 519 478" version="1.1" xmlns="http://www.w3.org/2000/svg" xmlns:xlink="http://www.w3.org/1999/xlink">
    <title>logo</title>
    <g id="Logos" stroke="none" stroke-width="1" fill="none" fill-rule="evenodd">
        <g id="Artboard" transform="translate(-85.000000, -58.000000)">
            <g id="logo" transform="translate(85.000000, 58.000000)">
                <g id="Group">
                    <path d="M360.36867,14.3316478 C393.052293,28.7796981 431.723754,39.7727797 440.206527,68.9829682 C448.689299,98.1931567 426.983382,145.93454 421.993516,189.592779 C417.00365,233.565105 428.230848,273.768376 426.733888,318.05479 C425.236929,362.341205 410.766317,411.024853 383.07256,434.581456 C355.378804,457.823972 314.711395,455.625356 275.540947,452.484473 C236.121005,449.657683 198.198023,445.26045 169.2568,422.960199 C140.066083,400.659947 120.106619,360.456677 102.392595,318.997055 C84.9280634,277.85152 69.9584652,235.449634 78.4412375,199.329508 C86.6745165,163.209383 118.110673,133.05693 139.567097,100.391773 C161.023521,67.412528 172.250719,31.9205785 192.958664,8.67806297 C213.916101,-14.5644526 243.855297,-25.5575343 272.297534,-21.7884777 C300.73977,-18.3335092 327.685047,-0.116402374 360.36867,14.3316478 Z" id="Path-Copy" fill="#A44A3F" fill-rule="nonzero" transform="translate(259.074983, 215.946012) rotate(-83.000000) translate(-259.074983, -215.946012) "></path>
                    <path d="M354.820054,28.2042346 C388.43024,41.5122108 428.198016,51.6378449 436.921271,78.5431012 C445.644525,105.448358 423.323257,149.42254 418.191931,189.635773 C413.060605,230.138309 424.606088,267.169199 423.06669,307.96104 C421.527293,348.75288 406.646447,393.594974 378.167588,415.292761 C349.688728,436.701245 307.868421,434.676118 267.587511,431.783079 C227.050036,429.179345 188.051958,425.129091 158.290267,404.588519 C128.27201,384.047947 107.746705,347.017057 89.530498,308.828951 C71.5708569,270.930149 56.1768788,231.874132 64.900133,198.604191 C73.366821,165.334251 105.694175,137.561083 127.758877,107.473484 C149.823579,77.0965821 161.369063,44.4052491 182.664066,22.9967656 C204.215635,1.58828209 235.003591,-8.53735201 264.25215,-5.06570603 C293.500708,-1.88336389 321.209869,14.8962583 354.820054,28.2042346 Z" id="Path" fill="#F19C79" fill-rule="nonzero" transform="translate(250.654746, 213.909512) scale(1, -1) rotate(-83.000000) translate(-250.654746, -213.909512) "></path>
                    <text id="LAURA-BLONDI" font-family="Roboto-Light, Roboto" font-size="71.0307692" font-weight="300" line-spacing="82.8692308" letter-spacing="5.32960687" fill="#0B0B0B">
                        <tspan x="135.035" y="197.690245">LAURA</tspan>
                        <tspan x="135.035" y="280.559476">BLONDI</tspan>
                    </text>
                </g>
                <text id="UI/UX-DESIGNER" font-family="Roboto-Medium, Roboto" font-size="41.5384615" font-weight="400" letter-spacing="5.53846149" fill="#FBBAB2">
                    <tspan x="54.4676986" y="467.238462">UI/UX DESIGNER</tspan>
                </text>
            </g>
        </g>
    </g>
</svg>