<?xml version="1.0" encoding="UTF-8"?>
<svg width="1376px" height="1811px" viewBox="0 0 1376 1811" version="1.1" xmlns="http://www.w3.org/2000/svg" xmlns:xlink="http://www.w3.org/1999/xlink">
    <title>Design_Process@1x</title>
    <g id="Page-1" stroke="none" stroke-width="1" fill="none" fill-rule="evenodd">
        <g id="Gray" transform="translate(-112.000000, -228.000000)">
            <g id="Design_Process" transform="translate(112.000000, 228.000000)">
                <path id="Line" d="M473.474926,304.983034 L476.166047,306.308878 C493.544457,314.870764 509.487428,325.256326 525.395328,337.978388 C537.892293,347.972614 548.914144,358.053411 565.772825,374.436007 C567.741848,376.349426 574.428625,382.868208 575.365399,383.779838 C607.08103,414.644159 625.224815,429.698978 649.90969,443.096904 C681.707548,460.355462 718.029773,469.256414 763.751879,469.358195 C863.656923,469.580591 952.837124,538.358196 1031.30394,675.206154 L1032.171,676.729 L1044.52191,670.00971 L1045.8402,708 L1014.657,686.260457 L1026.9,679.597 L1026.11152,678.212671 C948.607503,543.031563 861.146017,475.575017 763.738523,475.35818 C717.039936,475.254225 679.737739,466.113126 647.04754,448.370242 C633.078435,440.788392 619.954647,431.66848 606.456386,420.468289 C595.87913,411.691803 586.486041,402.974155 571.180861,388.079796 C570.700847,387.612666 568.722921,385.684836 566.640413,383.655661 L566.118413,383.147042 C564.289433,381.364994 562.46928,379.592082 561.591376,378.73897 C544.860651,362.480716 533.958323,352.509237 521.647922,342.664212 C506.473537,330.528767 491.30143,320.586134 474.851003,312.354788 L473.514358,311.691122 L470.823236,310.365277 L473.474926,304.983034 Z" fill="#647AA3" fill-rule="nonzero"></path>
                <text id="The-Design-Process" font-family="Quicksand-Light_Bold, Quicksand" font-size="40" font-weight="bold" letter-spacing="-0.72" fill="#1E275C">
                    <tspan x="0.840202493" y="40">The Design Process</tspan>
                </text>
                <g id="Ideation" transform="translate(0.000000, 140.000000)">
                    <g id="Color-6" fill="#568259" fill-rule="nonzero">
                        <path d="M361.68336,42.4610343 C403.000893,54.2200902 446.154761,76.3383142 463.293885,109.655639 C480.43301,142.972964 471.863448,187.48939 459.31516,228.08613 C447.072928,268.402893 431.158026,304.79997 403.91906,331.117857 C376.98615,357.155766 338.423119,373.114485 296.187419,391.033046 C253.951719,408.67163 207.737293,428.270056 161.216811,426.310214 C114.69633,424.070394 68.1758482,399.992327 49.2003887,363.315272 C29.9188733,326.638217 38.1823799,277.362173 29.9188733,229.765995 C21.3493109,182.169817 -4.05332044,135.973526 1.45568395,93.976898 C7.27074414,51.98027 43.9974401,13.6233498 88.9876426,3.5441591 C133.977845,-6.81500913 186.925498,10.8235746 233.44598,20.3428103 C280.272517,29.5820684 320.059771,30.7019785 361.68336,42.4610343 Z" id="Path"></path>
                    </g>
                    <g id="Group-11" transform="translate(71.256182, 127.182703)" fill="#FFFFFF" font-family="Quicksand-Light_Medium, Quicksand" font-size="30" font-weight="400" letter-spacing="-0.540000021">
                        <text id="Low-Fidelity-Sketche">
                            <tspan x="41.4" y="96.6">Low Fidelity Sketches</tspan>
                        </text>
                        <text id="Crazy-8-Exercises">
                            <tspan x="41.4" y="30">Crazy 8 Exercises</tspan>
                        </text>
                        <text id="Mid-Fidelity-Wirefra">
                            <tspan x="5.68434189e-14" y="164.1">Mid Fidelity Wireframes</tspan>
                        </text>
                    </g>
                    <text font-family="Quicksand-Light_Bold, Quicksand" font-size="36" font-weight="bold" letter-spacing="-0.648000026" fill="#334195">
                        <tspan x="167.756182" y="499.982703">Ideation</tspan>
                    </text>
                </g>
                <g id="Discovery" transform="translate(885.043092, 666.992138)">
                    <path d="M402.708123,-3.69371505 C424.77137,10.9030198 423.992667,66.9544815 426.588343,110.160817 C429.184019,153.367152 435.67321,184.020295 433.596669,214.965373 C431.779696,245.91045 421.656559,276.855528 406.861205,312.471561 C392.065851,348.087594 372.59828,388.666517 341.190599,413.189031 C309.52335,438.003481 265.656424,447.345391 231.912634,430.413178 C198.168845,413.189031 174.548192,369.982696 143.400079,332.615055 C112.251965,295.247414 73.3168237,263.718467 60.8575783,222.555675 C48.1387653,181.100948 61.8958488,130.596245 84.7377986,88.557649 C107.320181,46.8109874 139.246997,13.530432 175.326895,6.23206462 C211.147226,-1.35823748 251.120638,17.0336484 293.430158,12.6546279 C335.999247,8.56754219 380.644876,-18.2904499 402.708123,-3.69371505 Z" id="Path" fill="#568259" fill-rule="nonzero" transform="translate(245.000000, 215.500000) rotate(-97.000000) translate(-245.000000, -215.500000) "></path>
                    <g id="Group-12" transform="translate(91.797111, 87.007862)" fill="#FFFFFF" font-family="Quicksand-Light_Medium, Quicksand" font-size="30" font-weight="400" letter-spacing="-0.54">
                        <text id="Competitor-Analysis">
                            <tspan x="0" y="115">Competitor Analysis</tspan>
                        </text>
                        <text id="Market-Research">
                            <tspan x="15" y="30">Market Research</tspan>
                        </text>
                        <text id="Material-Design-Rese">
                            <tspan x="30.6175" y="190">Material Design </tspan>
                            <tspan x="72.88" y="228">Research</tspan>
                        </text>
                    </g>
                    <text font-family="Quicksand-Light_Bold, Quicksand" font-size="35" font-weight="bold" letter-spacing="-0.63" fill="#334195">
                        <tspan x="164.797111" y="503.007862">Discovery</tspan>
                    </text>
                </g>
                <g id="Iterative-Design" transform="translate(150.840202, 1291.000000)">
                    <path d="M503.529146,2.2090564 C542.149655,13.5556229 554.760433,72.0613565 548.455044,120.638844 C542.149655,169.216332 516.928098,207.510994 511.410883,248.996878 C505.49958,290.482762 519.292619,335.159868 505.49958,369.199567 C491.706542,403.239267 450.721513,427.350721 409.736484,427 C368.751455,426.64156 327.766426,401.820946 284.022789,389.056059 C240.279152,375.936591 193.776907,374.51827 138.604753,357.49842 C83.8266852,340.478571 20.7727943,307.857192 4.61523473,263.534666 C-11.9364116,219.212141 18.4082734,163.543049 57.8169552,122.057165 C97.225637,80.9258616 145.304229,53.6231859 192.988734,45.8224214 C241.067326,38.3762372 288.357744,50.0773839 344.712159,38.3762372 C400.672487,26.3205102 464.908638,-9.13751011 503.529146,2.2090564 Z" id="Path" fill="#568259" fill-rule="nonzero"></path>
                    <g id="Group-13" transform="translate(163.000000, 94.000000)" fill="#FFFFFF" font-family="Quicksand-Light_Medium, Quicksand" font-size="30" font-weight="400" letter-spacing="-0.54">
                        <text id="Prototyoing">
                            <tspan x="0" y="30">Prototyoing</tspan>
                        </text>
                        <text id="Hi-Fi-Wireframes">
                            <tspan x="0" y="164">Hi Fi Wireframes</tspan>
                        </text>
                        <text id="Mockups">
                            <tspan x="0" y="231">Mockups</tspan>
                        </text>
                        <text id="User-Testing">
                            <tspan x="0" y="97">User Testing</tspan>
                        </text>
                    </g>
                    <text font-family="Quicksand-Light_Bold, Quicksand" font-size="35" font-weight="bold" letter-spacing="-0.63" fill="#334195">
                        <tspan x="163" y="511">Iterative Design</tspan>
                    </text>
                </g>
                <path id="Line-2" d="M1033.84787,1049.06659 L1039.77361,1050.00767 L1039.30307,1052.97054 C1026.40868,1134.16361 942.54976,1181.94556 788.654728,1196.77879 C736.807404,1201.77611 701.055784,1228.24987 681.034748,1276.49359 L694.146359,1280.55941 L667.840202,1308 L661.671422,1270.49072 L675.280115,1274.70909 C696.105648,1224.10189 733.828328,1196.03544 788.079083,1190.80646 C938.056268,1176.35086 1019.39166,1130.71679 1032.98611,1054.35292 L1033.37733,1052.02946 L1033.84787,1049.06659 Z" fill="#647AA3" fill-rule="nonzero"></path>
            </g>
        </g>
    </g>
</svg>