<?xml version="1.0" encoding="UTF-8"?>
<svg width="1565px" height="934px" viewBox="0 0 1565 934" version="1.1" xmlns="http://www.w3.org/2000/svg" xmlns:xlink="http://www.w3.org/1999/xlink">
    <title>Hero_image</title>
    <g id="Logos" stroke="none" stroke-width="1" fill="none" fill-rule="evenodd">
        <g id="Artboard" transform="translate(13.000000, -164.000000)">
            <g id="Hero_image" transform="translate(-13.000000, 164.000000)">
                <g id="Group-4" transform="translate(0.000000, 233.000000)" fill="#3A0E03" fill-rule="nonzero">
                    <path d="M812.37988,-174.143566 C868.819531,-133.982826 935.191881,-102.492812 951.54017,-25.1909209 C967.888459,52.11097 934.233656,176.049775 928.678978,290.392862 C923.14527,405.560988 944.885709,511.924708 945.301601,628.153946 C945.717493,744.383183 924.406334,871.286113 878.973494,931.292265 C833.519685,990.47338 764.346698,981.949541 697.651644,971.051761 C630.554086,960.962157 565.892521,946.848535 515.280731,886.314772 C464.245467,825.764147 427.683451,718.810243 394.848819,608.707946 C362.45863,499.447551 334.219298,387.055626 346.205881,292.749534 C357.768989,198.426579 308.082643,64.6357911 391.235571,11.5749653 C474.3885,-41.4858605 494.255085,-140.655663 527.851633,-200.308924 C561.871655,-259.945323 611.954547,-286.798179 660.482176,-274.975405 C708.988834,-263.97767 755.940229,-214.304305 812.37988,-174.143566 Z" id="Path-Copy" transform="translate(648.913297, 350.578900) rotate(-86.000000) translate(-648.913297, -350.578900) "></path>
                </g>
                <g id="Group-3" transform="translate(440.000000, 406.000000)" fill="#FFD4CF" font-family="AnotherMondayDEMO-Regular, Another Monday DEMO" font-size="100" font-weight="normal" letter-spacing="5.33333397" line-spacing="105.6">
                    <text id="Hi,-I’m-Laura">
                        <tspan x="0" y="127.678634">Hi, I</tspan>
                        <tspan x="35.7283886" y="90.2188679" font-family="LucidaGrande, Lucida Grande">’</tspan>
                        <tspan x="174.640629" y="127.678634">m Laura</tspan>
                    </text>
                </g>
                <g id="Group-3" transform="translate(131.000000, 534.000000)" fill="#FFD4CF" font-family="AnotherMondayDEMO-Regular, Another Monday DEMO" font-size="100" font-weight="normal" letter-spacing="5.33333397" line-spacing="105.6">
                    <text id="I’m-a-UI/UX-Designer">
                        <tspan x="80.7049473" y="127.459766">I</tspan>
                        <tspan x="0.5" y="90" font-family="LucidaGrande, Lucida Grande">’</tspan>
                        <tspan x="139.41224" y="127.459766">m a UI/UX Designer from </tspan>
                        <tspan x="512.841933" y="233.059766">NYC</tspan>
                    </text>
                </g>
                <g id="Blobs" transform="translate(960.000000, 0.000000)" fill="#3A0E03" fill-rule="nonzero">
                    <g id="blob-(2)" transform="translate(0.000000, 170.000000)">
                        <path d="M103.1,2.6 C117.2,3.2 131.3,11.2 135.4,23.4 C139.5,35.5 133.6,51.8 128.1,64.9 C122.7,78 117.8,87.9 112.4,97.8 C106.9,107.7 101,117.4 92.4,122 C83.8,126.6 72.4,126.1 59.6,128.4 C46.9,130.8 32.7,136.1 22.3,132.6 C11.9,129 5.1,116.6 2.5,104.3 C-0.2,92.1 1.3,80.1 1.7,68.2 C2.1,56.4 1.5,44.9 3.7,31.8 C5.9,18.8 10.8,4.2 20.8,1.3 C30.9,-1.6 45.9,7 60.5,7.9 C75,8.8 89,2 103.1,2.6 Z" id="Path"></path>
                    </g>
                    <g id="blob-(3)" transform="translate(190.000000, 75.000000)">
                        <path d="M86.4,16.5 C90.6,21 92.325,27.675 100.575,33.375 C108.75,39.075 123.45,43.95 126.675,50.625 C129.9,57.3 121.65,65.85 115.125,74.55 C108.6,83.25 103.875,92.1 96.45,98.475 C89.1,104.85 79.05,108.75 69.825,107.325 C60.525,105.975 52.125,99.3 43.2,93.75 C34.275,88.275 24.825,84 16.95,76.65 C9.075,69.375 2.7,59.1 1.05,47.775 C-0.6,36.525 2.4,24.3 9.525,15.6 C16.575,6.825 27.675,1.65 38.25,0.825 C48.9,0 58.95,3.6 67.275,6.6 C75.6,9.6 82.2,12 86.4,16.5 Z" id="Path"></path>
                    </g>
                    <g id="blob-(4)" transform="translate(371.000000, 38.000000)">
                        <path d="M69.36,13.98 C77.1,18.42 86.94,19.2 92.04,24.06 C97.14,28.92 97.5,37.86 94.8,45.24 C92.1,52.62 86.28,58.38 82.56,65.64 C78.84,72.96 77.22,81.72 72.24,85.38 C67.2,89.04 58.8,87.66 49.98,88.38 C41.16,89.1 31.98,91.86 25.2,89.22 C18.42,86.52 14.1,78.42 9.84,70.44 C5.52,62.46 1.32,54.6 0.42,46.32 C-0.42,37.98 2.04,29.16 7.44,23.16 C12.9,17.16 21.3,14.1 28.98,9.66 C36.6,5.22 43.5,-0.54 49.74,0.54 C56.04,1.68 61.62,9.6 69.36,13.98 Z" id="Path"></path>
                    </g>
                    <g id="blob-(5)" transform="translate(565.000000, 38.000000) rotate(31.000000) translate(-565.000000, -38.000000) translate(533.000000, 14.000000)">
                        <path d="M48.42,0.36 C53.46,0.36 58.95,2.475 60.75,6.435 C62.505,10.395 60.615,16.245 61.11,22.32 C61.56,28.395 64.395,34.785 63.09,39.51 C61.74,44.28 56.205,47.475 50.715,47.565 C45.18,47.7 39.69,44.775 35.01,43.335 C30.33,41.94 26.505,42.03 20.205,42.345 C13.95,42.66 5.265,43.2 1.845,39.87 C-1.575,36.54 0.225,29.295 3.915,24.21 C7.605,19.08 13.23,16.155 16.875,13.14 C20.475,10.125 22.14,7.065 24.705,5.625 C27.225,4.23 30.735,4.455 34.74,3.465 C38.79,2.52 43.38,0.36 48.42,0.36 Z" id="Path"></path>
                    </g>
                </g>
            </g>
        </g>
    </g>
</svg>